<?xml version="1.0" standalone="no"?>
<!DOCTYPE svg PUBLIC "-//W3C//DTD SVG 20010904//EN"
 "http://www.w3.org/TR/2001/REC-SVG-20010904/DTD/svg10.dtd">
<svg version="1.0" xmlns="http://www.w3.org/2000/svg"
 width="70.000000pt" height="70.000000pt" viewBox="0 0 70.000000 70.000000"
 preserveAspectRatio="xMidYMid meet">

<g transform="translate(0.000000,70.000000) scale(0.100000,-0.100000)"
fill="#000000" stroke="none">
<path d="M262 651 c-10 -6 -9 -19 8 -61 28 -70 27 -69 50 -63 17 5 20 14 20
69 l0 64 -32 0 c-18 0 -39 -4 -46 -9z"/>
<path d="M360 596 c0 -57 2 -64 22 -69 12 -4 23 -5 23 -4 1 1 12 28 25 60 26
66 21 77 -37 77 l-33 0 0 -64z"/>
<path d="M183 619 c-18 -12 -33 -24 -33 -27 0 -12 84 -92 96 -92 7 0 16 5 19
11 7 11 -33 129 -44 129 -3 0 -21 -10 -38 -21z"/>
<path d="M532 526 c-45 -48 -50 -63 -28 -72 15 -6 116 41 116 54 -1 4 -11 20
-24 35 l-23 28 -41 -45z"/>
<path d="M51 448 c-6 -17 -11 -36 -11 -43 0 -17 122 -28 132 -12 14 21 9 26
-51 57 l-59 29 -11 -31z"/>
<path d="M578 449 c-89 -45 -75 -77 28 -64 l56 7 -5 36 c-4 19 -10 39 -14 43
-4 4 -34 -6 -65 -22z"/>
<path d="M615 362 c-66 -4 -85 -11 -85 -31 0 -14 14 -22 61 -35 33 -10 62 -16
64 -14 8 9 14 77 8 80 -4 2 -26 2 -48 0z"/>
<path d="M40 320 c0 -22 2 -40 5 -40 3 0 32 7 65 17 44 12 60 21 60 34 0 22
-20 29 -81 29 l-49 0 0 -40z"/>
<path d="M231 134 c-18 -31 -29 -59 -25 -64 5 -4 24 -12 41 -18 36 -12 32 -19
52 76 8 36 6 44 -9 52 -10 6 -20 10 -22 10 -2 0 -18 -25 -37 -56z"/>
<path d="M411 181 c-11 -7 -12 -20 -1 -74 l12 -65 44 15 c49 16 49 16 -4 96
-26 40 -30 41 -51 28z"/>
<path d="M325 114 c-3 -26 -9 -53 -12 -60 -4 -11 5 -14 37 -14 l42 0 -7 46
c-9 63 -14 74 -35 74 -13 0 -19 -11 -25 -46z"/>
</g>
</svg>
