<?xml version="1.0" standalone="no"?>
<!DOCTYPE svg PUBLIC "-//W3C//DTD SVG 20010904//EN"
 "http://www.w3.org/TR/2001/REC-SVG-20010904/DTD/svg10.dtd">
<svg version="1.0" xmlns="http://www.w3.org/2000/svg"
 width="1500.000000pt" height="1500.000000pt" viewBox="0 0 1500.000000 1500.000000"
 preserveAspectRatio="xMidYMid meet">

<g transform="translate(0.000000,1500.000000) scale(0.100000,-0.100000)"
fill="#000000" stroke="none">
<path d="M7050 14689 c-391 -26 -833 -93 -1219 -185 -252 -60 -650 -181 -657
-199 -3 -6 234 -627 527 -1380 292 -754 544 -1405 561 -1448 26 -69 33 -78 52
-74 11 3 100 25 196 50 209 54 429 92 617 108 76 6 148 13 161 15 l22 4 0
1560 0 1560 -67 -1 c-38 -1 -124 -6 -193 -10z"/>
<path d="M7770 13137 l0 -1563 132 -13 c245 -23 619 -98 801 -160 31 -11 59
-16 62 -12 8 15 1115 2893 1115 2902 0 11 -332 117 -543 173 -402 107 -872
187 -1277 216 -80 5 -178 12 -217 15 l-73 6 0 -1564z"/>
<path d="M4605 14087 c-366 -162 -792 -400 -1120 -625 -265 -182 -579 -428
-571 -448 3 -7 474 -528 1048 -1157 l1043 -1144 45 33 c229 171 447 306 672
417 109 53 146 76 143 87 -52 151 -1122 2890 -1130 2890 -5 0 -64 -24 -130
-53z"/>
<path d="M11456 11508 c-575 -628 -1046 -1145 -1046 -1149 0 -4 37 -47 81 -96
163 -177 336 -406 459 -609 33 -54 64 -102 68 -106 6 -6 590 281 1393 682 761
381 1386 694 1389 697 12 11 -176 333 -331 565 -180 270 -372 522 -574 753
-115 132 -374 405 -385 405 -4 0 -478 -514 -1054 -1142z"/>
<path d="M962 10433 c-242 -549 -420 -1148 -512 -1718 -17 -104 -32 -204 -35
-220 l-5 -30 1550 -139 c853 -77 1553 -137 1556 -133 3 3 16 59 29 126 48 244
141 550 233 771 l40 95 -1390 693 c-765 380 -1395 692 -1399 692 -4 0 -34 -62
-67 -137z"/>
<path d="M12613 9825 c-766 -382 -1393 -696 -1393 -698 0 -3 11 -29 24 -59 79
-178 190 -560 235 -807 11 -63 22 -115 23 -117 2 -1 702 64 1555 144 l1553
147 -6 40 c-94 676 -252 1254 -511 1868 -41 97 -78 177 -81 176 -4 0 -634
-313 -1399 -694z"/>
<path d="M366 7954 c-31 -321 -7 -941 55 -1389 31 -226 128 -727 143 -742 2
-2 676 189 1497 425 1461 419 1494 429 1493 453 0 13 -10 80 -22 149 -38 220
-53 379 -59 633 -6 241 -6 247 -27 252 -12 2 -687 63 -1501 135 -814 72 -1501
133 -1526 137 l-47 5 -6 -58z"/>
<path d="M13065 7834 c-825 -79 -1505 -143 -1511 -144 -8 0 -13 -76 -17 -252
-5 -257 -19 -395 -60 -622 l-23 -126 30 -10 c194 -62 2961 -848 2967 -843 21
22 112 495 149 775 48 366 72 890 55 1221 l-7 147 -42 -1 c-22 -1 -716 -66
-1541 -145z"/>
<path d="M9345 3959 c-222 -116 -538 -241 -775 -306 -29 -8 -35 -13 -33 -34 4
-38 571 -3041 575 -3045 6 -6 371 91 533 141 470 147 995 377 1418 623 l67 38
-818 1324 c-449 728 -822 1324 -827 1325 -6 1 -68 -29 -140 -66z"/>
<path d="M4794 2682 c-444 -719 -814 -1317 -821 -1329 -13 -20 -10 -23 104
-86 454 -249 965 -459 1463 -600 173 -50 469 -122 474 -116 5 7 578 3061 574
3063 -2 1 -59 17 -128 36 -252 67 -511 166 -752 286 l-106 53 -808 -1307z"/>
</g>
</svg>
